<?xml version="1.0" standalone="no"?>
<!DOCTYPE svg PUBLIC "-//W3C//DTD SVG 20010904//EN"
 "http://www.w3.org/TR/2001/REC-SVG-20010904/DTD/svg10.dtd">
<svg version="1.0" xmlns="http://www.w3.org/2000/svg"
 width="330.000000pt" height="330.000000pt" viewBox="0 0 330.000000 330.000000"
 preserveAspectRatio="xMidYMid meet">
<metadata>
Created by potrace 1.11, written by Peter Selinger 2001-2013
</metadata>
<g transform="translate(0.000000,330.000000) scale(0.100000,-0.100000)"
fill="#000000" stroke="none">
<path d="M0 2178 l1 -833 45 -35 c25 -19 98 -77 161 -129 l115 -94 69 1 69 1
0 -269 0 -269 162 -130 162 -131 853 0 853 0 0 399 0 399 378 0 c207 0 389 1
405 1 l27 1 0 404 0 403 -161 157 -161 156 -427 0 -428 0 0 245 0 245 -159
155 -159 154 -902 1 -903 0 0 -832z"/>
</g>
</svg>
