<?xml version="1.0" encoding="utf-8"?>
<!-- Generator: Adobe Illustrator 19.2.0, SVG Export Plug-In . SVG Version: 6.00 Build 0)  -->
<svg version="1.1" id="Laag_1" xmlns="http://www.w3.org/2000/svg" xmlns:xlink="http://www.w3.org/1999/xlink" x="0px" y="0px"
	 viewBox="0 0 482.3 563" style="enable-background:new 0 0 482.3 563;" xml:space="preserve">
<style type="text/css">
	.st0{fill:#F6F7E0;}
	.st1{opacity:0.8;}
	.st2{fill:#FA7678;}
	.st3{opacity:0.8;fill:#FA7678;enable-background:new    ;}
	.st4{fill:#F8F9E2;}
	.st5{clip-path:url(#SVGID_2_);fill:#F7FAE3;}
</style>
<path class="st0" d="M227.2,168.72l6.4,0.7c0.1,0,0.3,0,0.4-0.1l5.8-2.8c0.5-0.3,1.1,0.2,1,0.7l-0.7,6.4c0,0.1,0,0.3,0.1,0.4
	l2.8,5.8c0.3,0.5-0.2,1.1-0.7,1l-6.4-0.7c-0.1,0-0.3,0-0.4,0.1l-5.8,2.8c-0.5,0.3-1.1-0.2-1-0.7l0.7-6.4c0-0.1,0-0.3-0.1-0.4
	l-2.8-5.8C226.2,169.22,226.7,168.62,227.2,168.72z"/>
<g class="st1">
	<path class="st2" d="M207.1,294.52c0,0.2,0,0.5,0,0.7c0.2,0.5,0.4,0.9,0.6,1.4c1.3,2.7,2.7,5.4,4,8.1c0.4,0.7,0.7,1.5,1.1,2.2
		c0.6,1.1,1,2.3,1.3,3.5c0,0.2,0,0.4,0,0.5c0,0.2-0.5,0.4-0.6,0.3c-0.2-0.2-0.4-0.3-0.5-0.5c-0.4-0.6-0.8-1.3-1.1-2
		c-1.7-3.5-3.5-7.1-5.2-10.6c-0.3-0.6-0.5-1.1-0.8-1.7c-0.4-0.8-1.2-1.1-2.1-0.7c-0.8,0.3-1.6,0.7-2.4,1.1c-3.9,2-7.9,3.8-11.9,5.5
		c-0.3,0.1-0.6,0.2-0.9,0.3c-0.1,0-0.2-0.1-0.3-0.1c-0.1-0.1-0.1-0.2,0-0.3c0.2-0.2,0.4-0.3,0.6-0.5c1.9-1.1,3.8-2.2,5.8-3.2
		c2.4-1.2,4.9-2.3,7.3-3.5c0.5-0.2,1-0.5,1.5-0.7c0.6-0.3,0.8-0.8,0.5-1.4c-0.2-0.4-0.4-0.8-0.6-1.2c-1.6-3.2-3.2-6.4-4.7-9.6
		c-0.6-1.3-1.2-2.6-1.8-3.9c-0.2-0.4-0.3-0.8-0.2-1.3c0-0.1,0.2-0.2,0.2-0.2s0.1,0,0.2,0.1c0.5,0.4,0.8,1,1,1.5c1,1.9,2,3.9,3,5.8
		c1.1,2.2,2.3,4.5,3.4,6.7c0.2,0.4,0.4,0.8,0.6,1.2c0.5,0.8,1.2,1.1,2.1,0.6c0.6-0.3,1.1-0.6,1.7-0.9c3.4-1.9,6.8-3.8,10.3-5.4
		c1.2-0.6,2.4-1.1,3.6-1.6c0.4-0.2,0.7-0.2,1.1-0.1c0.2,0,0.4,0.4,0.3,0.6c-0.1,0.4-0.4,0.7-0.7,0.9c-0.3,0.2-0.7,0.4-1,0.5
		c-3.1,1.3-6.1,3-9.1,4.6c-1.7,0.9-3.3,1.8-5,2.6c-0.3,0.2-0.7,0.4-1,0.6C207.3,294.12,207.2,294.32,207.1,294.52z"/>
	<path class="st2" d="M204.4,300.32c1.4,0.7,2.5,1.8,2.9,3.4c0.3,1-0.3,2.2-1.2,2.7c-1.2,0.7-2.5,0.9-3.8,0.4
		c-0.3-0.1-0.6-0.2-0.8-0.4c-1.1-0.9-1.8-2-2.1-3.5c-0.2-1,0.2-1.7,1.1-2.2c1-0.5,2-0.6,3.1-0.7
		C203.8,300.12,204.1,300.22,204.4,300.32z M202.2,301.72c-0.3,0.2-0.6,0.4-0.9,0.7c-0.7,0.6-0.9,0.8-0.5,1.8c0.2,0.5,0.5,1,0.9,1.4
		c0.3,0.3,0.7,0.6,1.1,0.6c1.3,0.1,2.6-0.5,3.2-1.9c0.2-0.4,0.1-0.8-0.1-1.1c-0.2-0.3-0.5-0.6-0.8-0.8c-0.6-0.5-1.2-0.8-2.1-0.7
		C202.9,301.72,202.5,301.72,202.2,301.72z"/>
	<path class="st2" d="M211.9,286.12c-0.3,0.9-0.8,1.7-1.5,2.2c-1.1,0.8-2.4,0.8-3.4-0.2c-0.2-0.2-0.4-0.4-0.6-0.7
		c-0.7-1.1-1.1-2.3-1.2-3.5c-0.2-1.4,0.5-2.4,1.6-2.9c0.9-0.5,1.8-0.5,2.7,0c0.9,0.4,1.6,1,2.1,1.8
		C212.2,283.82,212.3,285.02,211.9,286.12z M210.5,285.62c0.1-0.3,0.2-0.4,0.2-0.5c0.5-1.7-0.9-3.3-2.6-3.2c-0.5,0.1-1,0.3-1.3,0.7
		c-1.1,1.5-1.1,3,0.1,4.4c0.6,0.7,1.6,0.8,2.4,0.2C209.8,286.82,210.3,286.22,210.5,285.62z"/>
	<path class="st2" d="M217.9,298.42c-0.4,1-0.7,1.6-1.2,2.1c-0.8,0.6-1.7,0.9-2.6,0.5c-1.8-0.7-2.9-2-3.1-3.9
		c-0.1-0.9,0.2-1.7,0.9-2.4c1.1-1.1,2.4-1.5,4-1.3c0.5,0.1,1,0.3,1.2,0.8C217.9,295.62,218.3,297.12,217.9,298.42z M213.6,299.62
		c0.9,0.3,1.9,0.1,2.7-0.6c0.5-0.4,0.7-1,0.7-1.7c0-0.5-0.1-1-0.3-1.4c-0.3-0.5-0.7-0.9-1.3-1c-0.9-0.2-1.9-0.1-2.7,0.4
		c-0.5,0.3-0.8,0.8-0.9,1.4C211.7,297.92,212.5,299.12,213.6,299.62z"/>
	<path class="st2" d="M197.8,287.52c1.4,0.5,2.3,1.8,2.2,3.3c-0.1,1.4-0.8,2.6-2.1,3.4c-0.7,0.5-1.5,0.5-2.3,0.2s-1.5-0.8-2.1-1.5
		c-0.8-1.1-0.9-2.5-0.2-3.7c0.2-0.3,0.3-0.5,0.5-0.8C195,287.22,196.6,287.02,197.8,287.52z M195.5,293.12c1.2,0.5,2.4,0.3,3.2-1
		c0.2-0.4,0.3-0.8,0.4-1.2c0.1-0.4-0.1-0.7-0.3-1c-0.7-0.9-1.7-1.2-2.8-1.2c-0.4,0-0.9,0.2-1.2,0.5c-0.6,0.5-1,1.1-1.1,1.9
		c0,0.4,0.1,0.7,0.3,1C194.4,292.52,194.9,292.82,195.5,293.12z"/>
</g>
<path class="st3" d="M70.6,163.42c-0.3,0.1-0.5,0.2-0.7,0.2c-1.4,0.1-2.7,0.1-4.1,0.2c-0.2,0-0.5,0-0.7,0c-0.7,0.1-1,0.4-0.9,1.1
	c0.1,0.7,0.2,1.3,0.4,2c0.1,0.3,0.1,0.6,0.1,0.9c0,0.5-0.3,1-0.8,1.1s-1,0.2-1.5,0.2c-1.7,0.1-3.5,0.2-5.2,0.3c-3,0.2-6,0.3-9,0.4
	c-1.2,0.1-2.4,0.1-3.5-0.1c-0.5-0.1-1-0.2-1.5-0.3c-0.7-0.2-1.2-0.7-1.2-1.5c-0.1-0.6-0.2-1.1-0.2-1.7c-0.3-4.2-1-8.3-1.7-12.4
	c-0.3-1.6-0.5-3.2-0.8-4.8c-0.1-0.5-0.1-1-0.1-1.5c0-0.8,0.4-1.2,1.2-1.4c0.4-0.1,0.7-0.1,1.1-0.1c0.5,0,1,0,1.5-0.1
	c0.2,0,0.3-0.1,0.6-0.2c0.1-0.4,0.1-0.7,0.2-1.1c0.1-0.6,0.1-1.1,0.3-1.7c0.2-0.9,1-1.5,1.9-1.6c0.7-0.1,1.4-0.1,2-0.2
	c4.5-0.3,8.9-0.5,13.4-0.8c0.6,0,1.2-0.1,1.9-0.1c0.8-0.1,1.6-0.2,2.3-0.7c0.2-0.1,0.5-0.2,0.7-0.3s0.6,0.1,0.6,0.3
	c0.1,0.3,0.2,0.6,0.3,0.9c0.3,1.3,0.5,2.6,0.8,3.9c0.8,4.5,1.6,9,2.4,13.4c0.2,1,0.2,2,0.3,3C70.5,161.82,70.6,162.62,70.6,163.42z
	 M59.2,148.32c-0.4-0.4-0.9-0.6-1.5-0.6c-0.2,0-0.5,0-0.7,0c-2.9,0-5.8,0.1-8.8,0.1c-0.2,0-0.5,0-0.7,0.1c-0.6,0.1-1.3,0.6-1.2,1.4
	c0,0.3,0,0.6,0.1,0.9c0.4,3.5,0.7,7,1.1,10.6c0,0.3,0.1,0.6,0.1,0.9c0,0.2,0.1,0.4,0.2,0.5c0.3,0.4,0.6,0.6,1.1,0.6
	c0.4,0,0.7,0,1.1-0.1c3.5-0.4,7-0.8,10.6-0.5c0.4,0,0.7-0.1,1.1-0.2c0.4-0.1,0.6-0.4,0.5-0.8c-0.4-2.4-0.6-4.8-1.2-7.2
	c-0.3-1.1-0.5-2.2-0.6-3.3c0-0.4-0.1-0.7-0.2-1.1C60,149.22,59.8,148.72,59.2,148.32z M68.9,161.42c0-0.1,0.1-0.3,0.1-0.5
	c-0.1-1.5-0.1-3-0.2-4.5c-0.1-0.9-0.3-1.8-0.8-2.7c-0.4-0.8-0.6-1.7-0.7-2.7c-0.2-1.9-0.4-3.7-0.7-5.6c-0.1-0.7-0.2-1.4-0.3-2
	c-0.2-0.8-0.7-1.3-1.5-1.5c-0.8-0.3-1.7-0.3-2.6-0.2c-4.8,0.4-9.5,0.7-14.3,0.9c-0.4,0-0.9,0-1.3,0.1c-0.2,0-0.5,0.1-0.7,0.2
	c-0.4,0.2-0.7,0.5-0.7,1c-0.1,1.2,0.7,2.2,1.9,2.3c0.6,0.1,1.2,0.1,1.9,0.1c2.6,0,5.2-0.1,7.8-0.1c0.6,0,1.2,0,1.9,0.1
	c1,0.1,1.7,0.7,2.1,1.7c0.2,0.5,0.3,1.1,0.4,1.6c0.6,3.1,1.1,6.1,1.7,9.2c0.1,0.6,0.2,1.1,0.3,1.6c0.1,0.4,0.3,0.7,0.4,1
	c0.2,0.4,0.6,0.6,1.1,0.6c1.3-0.1,2.6-0.3,3.9-0.6C68.7,161.62,68.8,161.52,68.9,161.42z M44.2,148.32c-0.1-0.1-0.3-0.2-0.5-0.3
	c-1-0.5-2-0.7-3.1-0.6c-0.3,0-0.6,0.3-0.6,0.6c0,0.6,0.1,1.2,0.2,1.9c0.5,3.3,1.1,6.6,1.6,10c0.3,2,0.6,3.9,0.9,5.9
	c0.1,0.5,0.2,1,0.4,1.4c0.1,0.4,0.4,0.7,0.9,0.9c1,0.4,2,0.5,3.1,0.5c4.5-0.2,9.1-0.4,13.6-0.6c0.4,0,0.7,0,1.1-0.1
	c0.5-0.1,0.9-0.4,1.1-0.9c0.3-0.6,0.3-1.2,0.3-1.8c0-0.4-0.3-0.7-0.6-0.9c-0.2-0.1-0.5-0.2-0.7-0.2c-0.7-0.1-1.5-0.3-2.2-0.2
	c-1.2,0.1-2.5,0.1-3.7,0.1c-2.3,0.1-4.6,0.2-6.9,0.3c-0.4,0-0.9,0-1.3,0c-0.7,0-0.9-0.2-0.9-0.9c0-0.2,0-0.5,0-0.7
	c-0.1-0.9-0.1-1.9-0.2-2.8c-0.5-2.3-0.4-4.6-0.9-6.8c-0.1-0.4,0-0.7-0.1-1.1c0-0.5-0.1-1-0.2-1.5
	C45.3,149.62,44.9,148.92,44.2,148.32z"/>
<path class="st3" d="M140.1,94.22c0,0.5,0,0.9,0,1.3c0,1.1,0,2.3,0,3.4c0,1.2,0.2,2.4,0.5,3.6c1,3.7,3.5,6.1,7.2,7.1
	c4.5,1.3,8.9,0.8,13.1-1.2c0.3-0.1,0.6-0.3,0.8-0.4c0.9-0.4,1.6-1.1,2.1-2c1-2,1.6-4.1,1.7-6.3c0-1,0-2.1-0.2-3.1
	c-0.9-4.1-3.3-7-7.3-8.5c-1.8-0.7-3.6-0.9-5.5-0.9c-1.5,0-2.9,0.3-4.3,0.8c-1.6,0.6-2.7,1.7-3.3,3.3c-1,2.6-1.3,5.4-0.5,8.1
	c0.3,1.2,0.8,2.3,1.4,3.3c0.6,1,1.4,1.7,2.4,2.2c0.7,0.3,1.3,0.6,2.1,0.7c0.8,0.1,1.6,0.2,2.5,0.3c1.9,0.2,3.5-0.4,5-1.5
	c0.6-0.4,1.1-0.9,1.7-1.4c0.6-0.5,1-1.2,1.2-2c0.9-3,0.3-5.7-1.8-8c-0.8-0.9-1.8-1.5-3-1.8c-0.5-0.1-1-0.2-1.6-0.1
	c-2.3,0.2-4.2,1.1-5.6,3c-1.2,1.6-1.2,3.4,0.1,5c0.5,0.6,1,1.2,1.7,1.6c1,0.8,2.2,1.1,3.5,0.6c1.4-0.5,2.4-2,2.5-3.3
	c0-0.9-0.4-1.5-1.2-1.9c-0.4-0.2-0.9-0.4-1.3-0.4c-0.6-0.1-1.1,0.2-1.2,0.8c-0.1,0.5-0.2,1-0.4,1.5c0,0.1-0.3,0.2-0.4,0.1
	c-0.2-0.2-0.4-0.4-0.4-0.7c0-0.5,0.1-1,0.3-1.5c0.2-0.5,0.5-0.8,1-1c0.4-0.2,0.9-0.3,1.4-0.4c2.1,0,3.9,2,3.5,3.9
	c-0.1,0.4-0.2,0.8-0.4,1.2c-0.4,1-1.1,1.8-2,2.4c-0.6,0.5-1.4,0.7-2.2,0.7c-1.7,0.1-3.1-0.5-4.2-1.8c-0.7-0.7-1.2-1.6-1.7-2.5
	c-0.8-1.7-0.6-3.3,0.2-5c0.4-0.9,1.1-1.6,2-2.2c0.8-0.5,1.6-0.9,2.5-1.2c1.8-0.6,3.6-0.6,5.3,0.3c0.2,0.1,0.5,0.2,0.7,0.4
	c1.8,1.3,3.2,3,3.8,5.2c0.3,1.1,0.4,2.1,0.5,3.2c0.1,1.7-0.5,3.2-1.7,4.4c-2.8,2.9-6.2,4-10.1,3c-1.3-0.3-2.5-0.9-3.7-1.6
	c-0.8-0.4-1.4-1.1-1.7-2c-0.5-1.1-0.8-2.2-1.2-3.4c-0.2-0.8-0.4-1.6-0.6-2.4c-0.6-2.3-0.3-4.5,0.8-6.5c0.3-0.6,0.6-1.2,1-1.8
	c0.5-0.8,1.2-1.5,2.1-1.9c0.5-0.2,1-0.4,1.5-0.6c2.2-0.5,4.4-0.8,6.7-0.5c2.7,0.3,5,1.4,7,3.2c2.8,2.5,4.3,5.6,4.4,9.3
	c0.1,1.7,0,3.4-0.5,5.1c-0.5,1.8-1.4,3.3-2.7,4.5c-0.6,0.5-1.2,1-1.9,1.3s-1.3,0.6-2,0.8c-3.8,1.2-7.6,1.4-11.4,0.5
	c-0.6-0.1-1.2-0.3-1.8-0.6c-2.9-1.1-4.9-3.1-5.9-6.1c-0.8-2.4-1.2-4.9-1-7.4c0.1-0.8,0.2-1.6,0.5-2.3
	C139.8,94.42,140,94.32,140.1,94.22z"/>
<path class="st4" d="M80.6,240.02l3.1,4c0.1,0.1,0.2,0.2,0.3,0.2l4.8,1.7c0.4,0.2,0.5,0.7,0.2,1l-4,3.1c-0.1,0.1-0.2,0.2-0.2,0.3
	l-1.7,4.8c-0.2,0.4-0.7,0.5-1,0.2l-3.1-4c-0.1-0.1-0.2-0.2-0.3-0.2l-4.8-1.7c-0.4-0.2-0.5-0.7-0.2-1l4-3.1c0.1-0.1,0.2-0.2,0.2-0.3
	l1.7-4.8C79.7,239.72,80.3,239.62,80.6,240.02z"/>
<path class="st4" d="M17.9,14.22l3.1,4c0.1,0.1,0.2,0.2,0.3,0.2l4.8,1.7c0.4,0.2,0.5,0.7,0.2,1l-4,3.1c-0.1,0.1-0.2,0.2-0.2,0.3
	l-1.7,4.8c-0.2,0.4-0.7,0.5-1,0.2l-3.1-4c-0.1-0.1-0.2-0.2-0.3-0.2l-4.8-1.7c-0.4-0.2-0.5-0.7-0.2-1l4-3.1c0.1-0.1,0.2-0.2,0.2-0.3
	l1.7-4.8C17,13.92,17.6,13.82,17.9,14.22z"/>
<path class="st4" d="M320,50.02l1.4,6.4c0,0.1,0.1,0.3,0.2,0.4l4.6,4.6c0.4,0.4,0.2,1.1-0.4,1.3l-6.4,1.4c-0.1,0-0.3,0.1-0.4,0.2
	l-4.6,4.6c-0.4,0.4-1.1,0.2-1.3-0.4l-1.4-6.4c0-0.1-0.1-0.3-0.2-0.4l-4.6-4.6c-0.4-0.4-0.2-1.1,0.4-1.3l6.4-1.4
	c0.1,0,0.3-0.1,0.4-0.2l4.6-4.6C319.2,49.22,319.9,49.42,320,50.02z"/>
<g>
	<defs>
		<rect id="SVGID_1_" x="326.21" y="232.77" width="103.27" height="87.45"/>
	</defs>
	<clipPath id="SVGID_2_">
		<use xlink:href="#SVGID_1_"  style="overflow:visible;"/>
	</clipPath>
	<path class="st5" d="M373.68,259.44c-0.08-0.16-0.12-0.3-0.21-0.41c-0.24-0.33-0.57-0.53-0.94-0.69c-0.17-0.07-0.44-0.01-0.51,0.15
		c-0.23,0.49-0.47,0.98-0.67,1.47c-0.7,1.68-1.39,3.36-2.07,5.04c-1.93,4.73-3.86,9.46-5.79,14.19c-0.13,0.32-0.26,0.64-0.33,0.97
		c-0.1,0.46,0.02,0.88,0.4,1.19c0.23,0.19,0.47,0.36,0.71,0.53c0.81,0.55,1.63,1.09,2.44,1.65c4.21,2.9,8.56,5.58,13.06,8
		c0.3,0.16,0.62,0.29,0.93,0.43c0.1,0.04,0.34-0.05,0.39-0.14c0.06-0.13,0.13-0.26,0.17-0.4c0.22-0.79,0.08-1.23-0.53-1.67
		c-0.4-0.29-0.82-0.55-1.23-0.81c-3.94-2.5-7.88-5-11.82-7.5c-0.5-0.32-1-0.63-1.49-0.96c-0.24-0.16-0.48-0.34-0.69-0.54
		c-0.27-0.25-0.39-0.58-0.27-0.94c0.14-0.42,0.3-0.83,0.49-1.23c2.58-5.47,4.99-11,7.4-16.54c0.18-0.4,0.34-0.82,0.48-1.23
		C373.65,259.82,373.65,259.62,373.68,259.44 M374.95,260.31c-0.15,0.18-0.3,0.32-0.38,0.48c-0.38,0.74-0.75,1.49-1.1,2.25
		c-1.11,2.41-2.2,4.82-3.31,7.23c-1.18,2.59-2.37,5.18-3.54,7.77c-0.56,1.23-0.48,1.55,0.61,2.37c0.63,0.47,1.3,0.88,1.97,1.3
		c2.29,1.42,4.6,2.83,6.89,4.25c1.34,0.82,2.67,1.66,4.01,2.48c0.38,0.23,0.77,0.44,1.16,0.63c0.37,0.18,0.86,0.07,1.05-0.26
		c0.3-0.51,0.57-1.03,0.82-1.56c1.2-2.64,2.37-5.28,3.57-7.92c0.9-1.97,1.82-3.92,2.73-5.87c0.12-0.27,0.25-0.53,0.36-0.81
		c0.07-0.19,0.06-0.39-0.1-0.54c-0.21-0.2-0.44-0.4-0.66-0.58c-4.47-3.6-8.95-7.2-13.43-10.79
		C375.4,260.59,375.19,260.47,374.95,260.31 M387.9,266.37c0.14,0.05,0.29,0.07,0.41,0.15c1.61,1.12,3.21,2.26,4.82,3.39
		c0.12,0.08,0.23,0.18,0.34,0.28c0.49,0.44,0.66,0.97,0.43,1.59c-0.15,0.41-0.34,0.82-0.52,1.22c-1.33,2.85-2.67,5.69-4,8.54
		c-1.18,2.54-2.33,5.09-3.51,7.63c-0.4,0.85-0.76,1.7-0.81,2.66c-0.01,0.19-0.27,0.33-0.44,0.25c-0.53-0.25-1.07-0.5-1.6-0.75
		c-0.25-0.11-0.48-0.04-0.63,0.2c-0.16,0.25-0.3,0.51-0.46,0.75c-0.39,0.57-0.73,0.67-1.39,0.35c-0.53-0.25-1.05-0.54-1.56-0.84
		c-1.27-0.74-2.55-1.48-3.81-2.24c-3.61-2.19-7.22-4.38-10.82-6.59c-0.54-0.33-1.05-0.72-1.56-1.11c-0.48-0.37-0.62-0.87-0.49-1.45
		c0.06-0.29,0.17-0.56,0.28-0.84c1.47-3.85,2.88-7.73,4.57-11.49c1.27-2.82,2.4-5.7,3.26-8.68c0.1-0.33,0.19-0.66,0.32-0.98
		c0.17-0.41,0.35-0.81,0.55-1.2c0.17-0.34,0.43-0.41,0.72-0.21c0.4,0.28,0.8,0.57,1.2,0.86c0.16,0.11,0.32,0.22,0.49,0.33
		c0.13,0.08,0.45,0.03,0.55-0.1c0.3-0.39,0.58-0.79,0.88-1.17c0.18-0.23,0.54-0.28,0.8-0.12c0.17,0.1,0.34,0.2,0.49,0.32
		c0.35,0.27,0.68,0.56,1.02,0.84c1.28,1.08,2.55,2.16,3.83,3.23c0.45,0.38,0.92,0.74,1.36,1.13c0.1,0.09,0.14,0.24,0.21,0.37
		l0.01-0.02c-0.21,0.09-0.37-0.03-0.53-0.14c-1.67-1.2-3.31-2.45-4.86-3.81c-0.33-0.29-0.67-0.57-1.01-0.85
		c-0.1-0.09-0.32-0.07-0.41,0c-0.3,0.26-0.52,0.58-0.68,0.94c-0.15,0.34-0.15,0.68,0.13,0.95c0.35,0.34,0.71,0.68,1.09,0.98
		c2.82,2.2,5.67,4.37,8.31,6.8c1.45,1.33,3.06,2.45,4.76,3.44c0.25,0.15,0.51,0.3,0.76,0.45c0.72,0.44,0.73,1.06,0.27,1.61
		c-0.42,0.5-0.64,1.08-0.84,1.69c-0.21,0.65-0.49,1.28-0.79,1.9c-0.34,0.71-0.73,1.39-1.11,2.08c-0.53,0.94-0.96,1.93-1.35,2.94
		c-0.35,0.91-0.74,1.82-1.15,2.7c-0.6,1.29-1.24,2.56-1.86,3.84c-0.13,0.26-0.25,0.53-0.37,0.8c-0.16,0.34-0.11,0.66,0.06,0.99
		c0.11,0.22,0.39,0.29,0.62,0.17c0.23-0.12,0.4-0.29,0.52-0.5c0.29-0.51,0.59-1.02,0.85-1.55c0.73-1.45,1.44-2.9,2.16-4.35
		c1.49-2.99,2.98-5.97,4.45-8.96c0.35-0.7,0.65-1.43,0.93-2.16c0.12-0.31,0.17-0.66,0.2-1c0.04-0.46-0.13-0.87-0.47-1.19
		c-0.18-0.17-0.37-0.32-0.56-0.48c-1.15-0.92-2.3-1.84-3.44-2.76c-0.26-0.21-0.59-0.37-0.72-0.71
		C387.84,266.45,387.87,266.41,387.9,266.37"/>
	<path class="st5" d="M355.01,272.7c-0.06-0.16-0.12-0.34-0.19-0.51c-0.36-0.92-0.42-1.03-1.56-0.66c-0.61,0.2-1.18,0.5-1.68,0.91
		c-2.47,2.02-4.2,4.51-4.84,7.69c-0.11,0.53-0.17,1.07-0.21,1.6c-0.14,1.9,0.45,3.59,1.53,5.12c1.03,1.45,2.3,2.68,3.73,3.74
		c1.01,0.75,2.18,1.13,3.44,1.16c0.78,0.02,1.57,0.07,2.35-0.08c0.44-0.09,0.88-0.1,1.32-0.03c0.37,0.06,0.62,0.28,0.75,0.63
		c0.23,0.66,0.31,1.34,0.3,2.03c0,0.24-0.09,0.48-0.17,0.71c-0.09,0.24-0.27,0.4-0.51,0.5c-0.51,0.2-1.05,0.28-1.59,0.26
		c-2.37-0.09-4.68-0.48-6.88-1.43c-2.55-1.11-4.58-2.82-6.09-5.16c-0.51-0.79-0.92-1.62-1.12-2.54c-0.42-1.97-0.86-3.93-0.97-5.95
		c-0.1-1.85,0.16-3.62,0.88-5.32c0.58-1.36,1.23-2.68,2.08-3.89c1.12-1.6,2.53-2.86,4.33-3.66c0.27-0.12,0.54-0.25,0.82-0.32
		c1-0.24,2.01-0.46,3.02-0.68c0.2-0.04,0.38,0.02,0.54,0.17c0.09,0.08,0.12,0.16,0.06,0.25c-0.08,0.12-0.15,0.26-0.26,0.34
		c-0.11,0.09-0.26,0.13-0.4,0.17c-0.52,0.13-1.05,0.26-1.57,0.38c-1.88,0.42-3.46,1.35-4.74,2.79c-2.71,3.06-3.93,6.61-3.66,10.7
		c0.14,2.08,0.58,4.07,1.27,6.03c0.69,1.97,1.94,3.5,3.66,4.66c0.74,0.49,1.52,0.89,2.35,1.22c1.33,0.53,2.7,0.89,4.1,1.16
		c0.98,0.19,1.95,0.15,2.93,0.1c0.19-0.01,0.38-0.08,0.57-0.15c0.26-0.09,0.47-0.42,0.44-0.7c-0.03-0.29-0.08-0.58-0.14-0.87
		c-0.06-0.27-0.25-0.4-0.55-0.36c-0.54,0.07-1.07,0.09-1.61,0.09c-1.66,0.01-3.19-0.45-4.63-1.26c-0.69-0.39-1.32-0.85-1.92-1.36
		c-1.05-0.89-1.99-1.9-2.86-2.97c-2.63-3.23-2.37-7.52-0.97-10.12c0.54-0.99,1.1-1.98,1.71-2.92c1.34-2.07,3.3-3.31,5.64-4
		c0.14-0.04,0.29-0.06,0.43-0.08c0.54-0.07,1.01,0.18,1.17,0.67c0.22,0.7,0.41,1.41,0.59,2.12c0.11,0.44-0.15,0.93-0.54,1.11
		c-0.13,0.06-0.27,0.11-0.41,0.17c-2.16,0.82-3.54,2.4-4.31,4.54c-0.52,1.46-0.65,2.98-0.41,4.5c0.5,3.14,2.73,4.83,5.11,5.16
		c0.58,0.08,1.18,0.06,1.76,0.03c0.5-0.03,0.98,0.01,1.45,0.16c0.19,0.06,0.27,0.34,0.12,0.47c-0.11,0.1-0.21,0.23-0.34,0.27
		c-0.28,0.09-0.57,0.2-0.85,0.19c-1.63-0.07-3.21-0.39-4.68-1.16c-0.39-0.2-0.76-0.45-1.12-0.7c-0.86-0.61-1.51-1.41-1.9-2.39
		c-0.54-1.33-0.91-2.7-0.97-4.14c-0.05-1.26,0.2-2.45,0.89-3.51c0.56-0.87,1.15-1.71,1.78-2.53c0.77-1,1.74-1.73,2.99-2.02
		c0.14-0.03,0.27-0.11,0.4-0.17C354.92,272.82,354.94,272.77,355.01,272.7"/>
	<path class="st5" d="M413.61,265.66c0.43,1.93,0.58,3.88,0.33,5.85c-0.18,1.42-0.57,2.79-1.21,4.07c-0.73,1.45-1.57,2.84-2.61,4.09
		c-1.15,1.38-2.49,2.49-4.17,3.18c-0.9,0.37-1.76,0.86-2.64,1.3c-0.13,0.06-0.27,0.11-0.41,0.16c-0.17,0.06-0.4-0.03-0.51-0.2
		c-0.09-0.14-0.09-0.28-0.01-0.41c0.27-0.42,0.58-0.79,1.03-1.03c0.26-0.14,0.51-0.29,0.77-0.43c0.7-0.35,1.39-0.72,2.11-1.05
		c0.87-0.4,1.58-0.95,2.13-1.75c0.47-0.68,1.04-1.31,1.59-1.93c0.59-0.67,1.1-1.39,1.32-2.27c0.12-0.46,0.43-0.76,0.71-1.1
		c0.29-0.35,0.43-0.74,0.47-1.21c0.09-0.93,0.27-1.84,0.39-2.77c0.07-0.58,0.1-1.17,0.15-1.76c0.05-0.65-0.07-1.27-0.24-1.89
		c-0.2-0.76-0.42-1.52-0.58-2.28c-0.28-1.41-0.99-2.54-2.13-3.42c-0.7-0.54-1.37-1.12-2.08-1.64c-1.4-1.02-2.93-1.77-4.62-2.21
		c-1.69-0.44-3.4-0.41-5.11-0.23c-0.5,0.05-0.95,0.25-1.36,0.52c-0.39,0.26-0.63,0.62-0.66,1.09c-0.02,0.29,0,0.59,0.07,0.87
		c0.19,0.73,0.5,0.98,1.25,1c0.39,0.01,0.78-0.03,1.17-0.05c1.28-0.06,2.56-0.07,3.81,0.19c3.35,0.7,5.58,2.75,6.86,5.86
		c0.49,1.2,0.57,2.48,0.45,3.77c-0.21,2.25-0.99,4.3-2.25,6.16c-0.73,1.08-1.66,1.93-2.84,2.5c-0.71,0.34-1.46,0.57-2.25,0.66
		c-0.49,0.06-0.86-0.15-1.13-0.54c-0.08-0.12-0.16-0.25-0.21-0.39c-0.38-0.96-0.75-1.92-1.12-2.88c-0.06-0.16,0.06-0.44,0.21-0.51
		c0.54-0.24,1.07-0.5,1.62-0.71c0.61-0.23,1.14-0.57,1.63-0.98c1.2-1.01,1.78-2.31,1.76-3.88c-0.01-0.92-0.37-1.73-0.87-2.47
		c-1.33-1.98-3.19-2.99-5.61-2.92c-0.53,0.02-1.08,0.16-1.6-0.05c-0.05-0.02-0.09-0.17-0.08-0.24c0.02-0.08,0.1-0.17,0.18-0.21
		c0.49-0.25,1.03-0.33,1.57-0.32c0.94,0.03,1.86,0.19,2.72,0.58c1.91,0.86,3.35,2.22,4.24,4.11c0.82,1.74,0.7,3.43-0.43,5.01
		c-0.25,0.36-0.54,0.7-0.86,1c-0.36,0.33-0.76,0.61-1.17,0.89c-0.28,0.19-0.59,0.35-0.91,0.49c-1.34,0.57-1.2,0.67-0.84,2.02
		c0.04,0.14,0.11,0.27,0.18,0.4c0.17,0.34,0.64,0.53,1.01,0.41c0.09-0.03,0.19-0.06,0.28-0.1c2.28-1.13,4.03-2.78,4.95-5.2
		c0.28-0.74,0.45-1.51,0.51-2.29c0.03-0.44,0.09-0.87,0.2-1.31c0.33-1.36,0.11-2.63-0.6-3.82c-0.18-0.29-0.34-0.6-0.55-0.87
		c-0.54-0.7-1.1-1.38-1.65-2.07c-0.42-0.51-0.94-0.84-1.6-0.96c-1.01-0.19-2.02-0.42-3.04-0.58c-1.28-0.2-2.55-0.17-3.78,0.29
		c-0.05,0.02-0.09,0.03-0.14,0.05c-1,0.33-1.58-0.24-1.78-1.02c-0.22-0.86-0.25-1.75-0.24-2.63c0.01-0.66,0.56-1.3,1.24-1.49
		c0.42-0.12,0.86-0.21,1.3-0.26c1.37-0.15,2.74-0.2,4.11-0.01c0.98,0.14,1.93,0.38,2.82,0.79c2.52,1.16,4.79,2.67,6.75,4.66
		c0.89,0.9,1.49,1.94,1.75,3.18C413.45,264.89,413.53,265.28,413.61,265.66"/>
	<path class="st5" d="M356.45,284.93c0.28-0.09,0.57-0.16,0.84-0.27c0.32-0.13,0.63-0.27,0.93-0.43c1.26-0.67,1.97-1.72,2.17-3.13
		c0.19-1.35-0.51-2.58-1.79-3.03c-1.56-0.54-3-0.28-4.22,0.85c-0.62,0.57-1.07,1.27-1.39,2.05c-0.35,0.85-0.22,1.63,0.37,2.33
		c0.48,0.57,1.04,1.03,1.68,1.41C355.48,284.98,355.95,285.09,356.45,284.93 M355.57,276.98c2.01-0.57,4.96,0.71,5.88,3.25
		c0.23,0.62,0.21,1.26,0.05,1.88c-0.41,1.53-1.29,2.73-2.61,3.61c-0.84,0.56-1.73,0.66-2.67,0.31c-1.45-0.54-2.69-1.4-3.7-2.58
		c-0.7-0.81-0.9-1.7-0.56-2.73c0.3-0.9,0.71-1.72,1.34-2.43C353.95,277.58,354.69,277.03,355.57,276.98"/>
	<path class="st5" d="M371.43,236.28c-0.23-0.8-0.45-1.61-0.68-2.41c-0.08-0.29-0.07-0.58,0.06-0.86c0.11-0.24,0.42-0.32,0.59-0.14
		c0.13,0.14,0.28,0.28,0.35,0.46c0.2,0.55,0.39,1.11,0.55,1.68c0.27,1,0.49,2,0.76,3c0.63,2.27,1.28,4.54,1.92,6.81
		c0.15,0.52,0.27,1.05,0.42,1.57c0.23,0.8,0.47,1.6,0.72,2.4c0.56,1.78,1.13,3.56,1.69,5.34c0.13,0.43,0.16,0.86,0.07,1.3
		c-0.01,0.05-0.15,0.09-0.23,0.12c-0.04,0.01-0.12,0-0.14-0.02c-0.06-0.08-0.11-0.16-0.14-0.26c-0.26-0.74-0.52-1.48-0.77-2.23
		c-0.4-1.21-0.78-2.43-1.19-3.64c-0.39-1.16-0.81-2.32-1.18-3.49c-0.47-1.45-0.9-2.91-1.34-4.36c-0.24-0.8-0.48-1.6-0.71-2.4
		c-0.26-0.95-0.51-1.9-0.76-2.85C371.42,236.29,371.43,236.29,371.43,236.28"/>
	<path class="st5" d="M367.71,244.11c0.66,2.36,1.33,4.72,1.96,7.09c0.25,0.94,0.41,1.91,0.6,2.87c0.01,0.07-0.07,0.19-0.14,0.22
		c-0.06,0.03-0.19,0.01-0.25-0.04c-0.11-0.09-0.2-0.21-0.28-0.34c-0.07-0.13-0.13-0.27-0.17-0.41c-0.72-2.19-1.5-4.36-2.11-6.58
		c-0.53-1.94-1.11-3.86-1.68-5.79c-0.7-2.35-1.25-4.74-1.76-7.14c-0.05-0.23-0.05-0.48-0.05-0.73c0-0.16,0.13-0.26,0.28-0.28
		c0.14-0.02,0.28,0,0.4,0.13c0.25,0.26,0.33,0.6,0.42,0.92c0.29,0.99,0.57,1.98,0.84,2.97
		C366.43,239.38,367.07,241.74,367.71,244.11C367.71,244.11,367.71,244.11,367.71,244.11"/>
	<path class="st5" d="M382.28,255.38c0.18,0.69,0.42,1.64,0.67,2.59c0.1,0.39,0.12,0.78,0.01,1.16c-0.02,0.06-0.11,0.11-0.18,0.15
		c-0.02,0.01-0.1-0.05-0.11-0.08c-0.26-0.74-0.53-1.48-0.77-2.22c-0.57-1.78-1.12-3.56-1.67-5.34c-0.44-1.41-0.85-2.82-1.29-4.23
		c-0.55-1.78-1.1-3.57-1.66-5.35c-0.38-1.22-0.77-2.43-1.14-3.66c-0.08-0.28-0.11-0.57-0.13-0.86c0-0.03,0.15-0.13,0.22-0.12
		c0.3,0.07,0.54,0.26,0.65,0.54c0.25,0.59,0.5,1.18,0.69,1.79c0.9,2.86,1.8,5.71,2.67,8.58
		C380.92,250.59,381.55,252.86,382.28,255.38"/>
	<path class="st5" d="M398.79,272.27c0.93-0.26,1.73-0.62,2.51-1.03c0.62-0.32,0.91-0.87,0.85-1.58c-0.12-1.46-1.09-2.57-2.54-2.85
		c-0.24-0.05-0.49-0.05-0.73-0.02c-1.38,0.15-2.45,1.18-2.68,2.54c-0.19,1.07,0.15,2.07,1.12,2.66
		C397.8,272.29,398.3,272.41,398.79,272.27 M400.63,273.29c-0.68,0.05-1.56,0.06-2.43-0.11c-0.54-0.11-1.01-0.38-1.36-0.81
		c-0.46-0.57-0.9-1.16-1.34-1.74c-0.18-0.24-0.26-0.52-0.29-0.82c-0.14-1.44,0.63-2.88,1.9-3.54c0.54-0.28,1.12-0.43,1.7-0.3
		c1.99,0.43,3.49,1.48,4.26,3.43C403.82,271.35,402.41,273.02,400.63,273.29"/>
	<path class="st5" d="M384.36,252.1c0.79,2.84,1.59,5.67,2.37,8.51c0.16,0.56,0.36,1.13,0.3,1.73c-0.01,0.08-0.09,0.19-0.16,0.22
		c-0.06,0.02-0.18-0.03-0.25-0.09c-0.27-0.24-0.37-0.57-0.46-0.9c-0.38-1.32-0.75-2.65-1.12-3.97c-0.69-2.46-1.38-4.91-2.08-7.37
		c-0.62-2.17-1.26-4.34-1.88-6.51c-0.14-0.47-0.26-0.95-0.35-1.43c-0.04-0.23-0.01-0.49,0-0.73c0.01-0.2,0.21-0.43,0.34-0.43
		c0.22,0,0.34,0.15,0.47,0.3c0.06,0.07,0.11,0.17,0.14,0.26c0.06,0.14,0.11,0.28,0.14,0.42c0.25,1,0.51,2,0.73,3
		C383.07,247.47,383.69,249.79,384.36,252.1"/>
	<path class="st5" d="M381.51,307.26c-0.78-3.64-1.57-7.29-2.34-10.93c-0.1-0.48-0.16-0.96-0.23-1.44c-0.02-0.14,0.05-0.2,0.17-0.16
		c0.08,0.02,0.2,0.06,0.23,0.12c0.12,0.27,0.24,0.54,0.31,0.82c0.28,1.09,0.56,2.19,0.8,3.29c0.26,1.2,0.45,2.41,0.7,3.61
		c0.38,1.77,0.77,3.55,1.18,5.31c0.59,2.58,1.21,5.16,1.78,7.74c0.28,1.24,0.49,2.5,0.73,3.75c0.05,0.24,0.05,0.48-0.1,0.71
		c-0.1,0.15-0.38,0.21-0.5,0.08c-0.1-0.11-0.22-0.21-0.26-0.34c-0.09-0.28-0.16-0.57-0.21-0.86c-0.35-1.83-0.68-3.66-1.03-5.49
		c-0.4-2.07-0.81-4.14-1.21-6.21C381.53,307.25,381.52,307.25,381.51,307.26"/>
	<path class="st5" d="M387.29,254.83c-0.46-1.72-1-3.76-1.54-5.79c-0.26-0.99-0.51-1.99-0.76-2.99c-0.09-0.35-0.03-0.68,0.15-0.99
		c0.06-0.11,0.29-0.14,0.37-0.04c0.12,0.15,0.27,0.3,0.33,0.47c0.22,0.65,0.46,1.3,0.62,1.96c0.51,2.09,1.02,4.19,1.48,6.29
		c0.7,3.25,1.36,6.52,2.03,9.78c0.07,0.33,0.11,0.67,0.15,1.01c0.01,0.09-0.01,0.2-0.06,0.28c-0.04,0.07-0.13,0.16-0.21,0.17
		c-0.06,0.01-0.19-0.07-0.2-0.13c-0.3-1.03-0.62-2.06-0.86-3.11C388.29,259.55,387.83,257.35,387.29,254.83"/>
	<path class="st5" d="M332.84,282.32c1.98-0.37,3.96-0.73,5.93-1.11c0.49-0.09,0.97-0.1,1.46-0.01c0.09,0.02,0.21,0.03,0.28,0.08
		c0.11,0.09,0.2,0.2,0.26,0.33c0.05,0.1-0.09,0.31-0.21,0.34c-0.19,0.06-0.37,0.12-0.56,0.17c-3.88,0.86-7.79,1.61-11.71,2.28
		c-0.6,0.1-1.17,0.02-1.75-0.09c-0.05-0.01-0.08-0.05-0.13-0.07c-0.12-0.04-0.24-0.23-0.2-0.35c0.03-0.08,0.08-0.18,0.15-0.23
		c0.38-0.25,0.83-0.3,1.26-0.38c1.73-0.34,3.47-0.68,5.2-1.01C332.83,282.28,332.83,282.3,332.84,282.32"/>
	<path class="st5" d="M340.95,289.66c0.37-0.03,0.76-0.07,1.15-0.07c0.13,0,0.28,0.09,0.39,0.16c0.22,0.14,0.24,0.49,0.04,0.62
		c-0.16,0.11-0.32,0.23-0.49,0.31c-0.59,0.24-1.19,0.46-1.79,0.68c-2.53,0.92-5.07,1.83-7.6,2.75c-0.79,0.29-1.61,0.42-2.45,0.42
		c-0.12,0-0.3-0.17-0.28-0.29c0.02-0.09,0.03-0.19,0.08-0.26c0.05-0.08,0.14-0.13,0.23-0.18c0.21-0.13,0.42-0.26,0.64-0.36
		c0.49-0.22,0.99-0.43,1.49-0.62c2.29-0.87,4.59-1.73,6.88-2.58C339.81,290.03,340.37,289.86,340.95,289.66"/>
	<path class="st5" d="M366.05,266.4c-0.17,0.07-0.34,0.12-0.4-0.05c-0.3-0.77-0.64-1.54-0.87-2.33c-0.55-1.88-1.06-3.77-1.55-5.66
		c-0.58-2.23-1.12-4.46-1.69-6.69c-0.1-0.38-0.24-0.75-0.41-1.09c-0.23-0.46-0.32-0.92-0.26-1.42c0.06-0.53,0.14-1.06,0.23-1.59
		c0.01-0.06,0.14-0.14,0.21-0.14c0.07,0,0.16,0.08,0.2,0.15c0.06,0.13,0.09,0.28,0.13,0.42c1.06,4.28,2.11,8.56,3.09,12.85
		c0.35,1.53,0.77,3.04,1.14,4.56C365.95,265.73,365.99,266.07,366.05,266.4"/>
	<path class="st5" d="M379.02,306.16c0.56,2.39,1.12,4.77,1.68,7.16c0.13,0.57,0.28,1.15,0.11,1.74c-0.02,0.08-0.12,0.17-0.19,0.18
		c-0.08,0.01-0.19-0.05-0.25-0.11c-0.07-0.06-0.13-0.15-0.16-0.24c-0.08-0.23-0.15-0.47-0.21-0.7c-0.17-0.71-0.33-1.43-0.51-2.15
		c-0.78-3.24-1.58-6.48-2.34-9.72c-0.28-1.19-0.45-2.41-0.66-3.61c-0.04-0.24-0.04-0.49-0.03-0.73c0-0.09,0.08-0.17,0.12-0.25
		c0.11,0.06,0.27,0.1,0.33,0.2c0.12,0.21,0.22,0.43,0.28,0.67c0.2,0.81,0.39,1.62,0.58,2.43c0.41,1.72,0.81,3.44,1.22,5.15
		C379,306.16,379.01,306.16,379.02,306.16"/>
	<path class="st5" d="M393.38,317.07c-0.27-0.42-0.29-0.92-0.39-1.4c-1.17-5.42-2.33-10.85-3.5-16.27c-0.43-2.02-0.87-4.03-1.3-6.05
		c-0.09-0.43-0.15-0.87-0.22-1.3c-0.02-0.13,0.03-0.2,0.14-0.18c0.09,0.02,0.2,0.04,0.25,0.1c0.09,0.11,0.16,0.24,0.2,0.38
		c0.1,0.38,0.18,0.76,0.27,1.15c1.09,4.94,2.17,9.88,3.26,14.82c0.5,2.25,1,4.51,1.5,6.76c0.12,0.53,0.22,1.06,0.14,1.6
		C393.7,316.88,393.62,317.04,393.38,317.07"/>
	<path class="st5" d="M375.03,301.46c0.27,1.09,0.54,2.19,0.81,3.28c0.42,1.71,0.84,3.42,1.25,5.14c0.1,0.43,0.16,0.86,0.23,1.3
		c0.01,0.07-0.07,0.16-0.13,0.22c-0.07,0.08-0.32-0.01-0.38-0.12c-0.05-0.09-0.1-0.17-0.15-0.25c-0.4-0.79-0.67-1.62-0.86-2.49
		c-0.96-4.4-1.94-8.8-2.91-13.2c-0.17-0.77-0.37-1.52-0.64-2.26c-0.2-0.55-0.34-1.12-0.5-1.69c-0.04-0.15,0.06-0.31,0.17-0.33
		c0.17-0.02,0.3,0.08,0.36,0.2c0.15,0.31,0.28,0.62,0.38,0.95c0.58,1.97,1.06,3.97,1.52,5.98c0.25,1.1,0.53,2.19,0.8,3.28
		C374.99,301.47,375.01,301.46,375.03,301.46"/>
	<path class="st5" d="M347.39,295.08c-0.03,0.16-0.03,0.33-0.1,0.44c-0.13,0.2-0.3,0.38-0.47,0.56c-2.35,2.5-4.69,4.99-7.04,7.48
		c-0.27,0.28-0.57,0.53-0.87,0.78c-0.16,0.13-0.48,0.04-0.66-0.15c-0.12-0.13-0.15-0.4-0.05-0.55c0.1-0.16,0.2-0.34,0.33-0.48
		c2.39-2.52,4.79-5.03,7.19-7.54c0.2-0.21,0.41-0.42,0.64-0.61c0.19-0.16,0.44-0.23,0.69-0.18
		C347.17,294.87,347.27,295,347.39,295.08"/>
	<path class="st5" d="M365.05,247.51c0.24,1.01,0.64,2.68,1.05,4.34c0.2,0.81,0.44,1.6,0.63,2.41c0.05,0.23,0,0.48-0.02,0.72
		c0,0.04-0.06,0.08-0.1,0.1c-0.03,0.01-0.09,0.01-0.11-0.01c-0.15-0.19-0.34-0.36-0.43-0.58c-0.13-0.31-0.2-0.65-0.29-0.99
		c-0.31-1.18-0.62-2.37-0.93-3.55c-0.24-0.9-0.48-1.8-0.7-2.7c-0.63-2.52-1.32-5.02-2.09-7.5c-0.11-0.35-0.08-0.67,0.06-1
		c0.07-0.17,0.36-0.22,0.48-0.06c0.12,0.15,0.25,0.3,0.34,0.47c0.07,0.13,0.09,0.28,0.13,0.42
		C363.67,242.01,364.28,244.43,365.05,247.51"/>
	<path class="st5" d="M410.33,256.81c-0.07-0.09-0.17-0.16-0.18-0.23c-0.01-0.14-0.01-0.3,0.05-0.43c0.13-0.31,0.28-0.63,0.46-0.92
		c0.34-0.54,0.71-1.06,1.07-1.58c1.22-1.78,2.45-3.55,3.48-5.46c0.19-0.34,0.4-0.68,0.64-0.99c0.29-0.37,0.67-0.56,1.16-0.5
		c0.12,0.02,0.26,0.21,0.21,0.33c-0.04,0.09-0.06,0.19-0.11,0.27c-1.59,2.6-3.17,5.19-5.01,7.62c-0.44,0.59-0.92,1.15-1.39,1.71
		C410.62,256.73,410.45,256.76,410.33,256.81"/>
	<path class="st5" d="M370.15,296.86c0.57,2.19,1.13,4.37,1.7,6.56c0.11,0.43,0.15,0.87,0.08,1.31c-0.01,0.07-0.12,0.16-0.19,0.16
		c-0.08,0-0.2-0.07-0.23-0.14c-0.11-0.22-0.19-0.45-0.28-0.68c-0.81-2.22-1.29-4.53-1.82-6.83c-0.23-1.01-0.46-2.01-0.66-3.02
		c-0.33-1.64-0.84-3.23-1.24-4.85c-0.07-0.28-0.07-0.58-0.1-0.87c0-0.01,0.08-0.04,0.12-0.05c0.04-0.01,0.12-0.03,0.13-0.01
		c0.12,0.15,0.28,0.29,0.34,0.46c0.26,0.79,0.52,1.59,0.73,2.39c0.31,1.19,0.58,2.39,0.88,3.58
		C369.78,295.53,369.96,296.2,370.15,296.86C370.15,296.86,370.15,296.86,370.15,296.86"/>
	<path class="st5" d="M390.19,289.01c0.1,0.23,0.18,0.35,0.21,0.49c0.12,0.48,0.23,0.95,0.34,1.43c1.27,5.9,2.54,11.81,3.8,17.72
		c0.1,0.47,0.25,0.93,0.21,1.45c-0.12-0.09-0.23-0.13-0.26-0.2c-0.28-0.78-0.6-1.56-0.81-2.37c-0.92-3.52-1.72-7.06-2.38-10.63
		c-0.11-0.58-0.21-1.16-0.34-1.74c-0.4-1.88-0.62-3.78-0.85-5.68C390.1,289.36,390.15,289.23,390.19,289.01"/>
	<path class="st5" d="M414.86,261.65c1.28-0.51,2.45-1,3.64-1.44c2.34-0.88,4.69-1.73,7.03-2.58c0.23-0.08,0.46-0.17,0.7-0.21
		c0.29-0.06,0.59-0.06,0.84,0.15c-0.15,0.33-0.46,0.47-0.76,0.63c-1.3,0.69-2.66,1.24-4.04,1.76c-1.61,0.6-3.26,1.07-4.91,1.53
		c-0.66,0.18-1.33,0.35-2.02,0.34C415.22,261.8,415.09,261.73,414.86,261.65"/>
	<path class="st5" d="M363.64,268.91c-0.49-0.31-0.6-0.64-0.71-0.96c-1.35-3.9-2.46-7.86-3.19-11.92c-0.02-0.09-0.01-0.19,0-0.29
		c0-0.03,0.05-0.09,0.08-0.08c0.09,0.01,0.21,0.02,0.25,0.08c0.11,0.16,0.2,0.34,0.26,0.52c0.44,1.25,0.84,2.51,1.22,3.78
		c0.75,2.49,1.34,5.02,1.87,7.57C363.5,267.98,363.55,268.36,363.64,268.91"/>
	<path class="st5" d="M417.74,268.44c1.01-0.29,2.05-0.22,3.07-0.26c2.4-0.08,4.79-0.09,7.19-0.13c0.5-0.01,0.98,0.02,1.4,0.32
		c0.06,0.04,0.07,0.16,0.08,0.25c0,0.03-0.05,0.08-0.08,0.1c-0.08,0.05-0.17,0.11-0.26,0.11c-0.34,0.02-0.68,0.04-1.03,0.04
		c-2.4-0.05-4.8,0.04-7.19,0.18c-1.22,0.07-2.44,0.24-3.65,0.36c-0.24,0.02-0.48,0-0.72-0.03c-0.08-0.01-0.15-0.11-0.21-0.18
		c-0.05-0.06,0.07-0.34,0.16-0.37C416.9,268.7,417.32,268.57,417.74,268.44"/>
	<path class="st5" d="M365.83,292.71c-0.46-1.95-0.91-3.9-1.36-5.86c-0.04-0.18-0.03-0.38-0.03-0.57c0-0.03,0.04-0.08,0.08-0.09
		c0.04-0.02,0.11-0.03,0.14,0c0.11,0.09,0.25,0.17,0.3,0.29c0.18,0.45,0.36,0.91,0.47,1.38c0.81,3.48,1.6,6.96,2.39,10.44
		c0.08,0.33,0.14,0.67,0.18,1.01c0.02,0.14-0.01,0.29-0.05,0.43c-0.02,0.08-0.1,0.19-0.18,0.21c-0.07,0.02-0.21-0.05-0.24-0.12
		c-0.13-0.31-0.27-0.63-0.35-0.96c-0.36-1.52-0.71-3.05-1.06-4.57c-0.12-0.52-0.23-1.05-0.34-1.58
		C365.8,292.71,365.81,292.71,365.83,292.71"/>
	<path class="st5" d="M395.72,249.73c0.28,1.31,0.56,2.6,0.83,3.9c0.04,0.19,0.04,0.38,0.05,0.58c0,0.04-0.04,0.1-0.07,0.1
		c-0.09,0.02-0.21,0.06-0.27,0.02c-0.12-0.07-0.25-0.17-0.3-0.29c-0.37-0.8-0.74-1.6-1.06-2.42c-0.24-0.59-0.33-1.23-0.33-1.87
		c0.01-0.89-0.16-1.75-0.34-2.62c-0.14-0.67-0.28-1.34-0.39-2.02c-0.04-0.24-0.04-0.49,0-0.72c0.02-0.12,0.13-0.29,0.24-0.32
		c0.1-0.03,0.31,0.04,0.37,0.14c0.37,0.58,0.6,1.22,0.7,1.91c0.11,0.78,0.24,1.55,0.36,2.32
		C395.57,248.88,395.65,249.31,395.72,249.73"/>
	<path class="st5" d="M328.03,269.89c0.29,0.05,0.58,0.08,0.86,0.16c1.7,0.44,3.4,0.9,5.11,1.35c2.7,0.71,5.36,1.54,7.93,2.65
		l-0.02-0.02c-0.12,0.07-0.24,0.21-0.36,0.21c-0.34-0.01-0.68-0.05-1.01-0.13c-0.95-0.23-1.9-0.47-2.84-0.73
		c-2.83-0.78-5.63-1.65-8.37-2.72c-0.41-0.16-0.8-0.35-1.19-0.55c-0.05-0.03-0.05-0.17-0.07-0.25L328.03,269.89z"/>
	<path class="st5" d="M354.04,298.82c0,0.16,0.02,0.31-0.01,0.45c-0.2,0.91-0.42,1.82-0.63,2.72c-0.42,1.77-0.83,3.53-1.26,5.29
		c-0.08,0.33-0.21,0.65-0.34,0.96c-0.08,0.2-0.34,0.31-0.47,0.23c-0.18-0.1-0.3-0.25-0.32-0.46c-0.01-0.09,0-0.19,0.01-0.29
		c0.03-0.19,0.07-0.39,0.11-0.58c0.6-2.48,1.2-4.95,1.8-7.43c0.09-0.38,0.17-0.77,0.48-1.05c0.06-0.06,0.19-0.1,0.26-0.08
		C353.81,298.64,353.92,298.74,354.04,298.82"/>
	<path class="st5" d="M346.14,267.94c-0.32-0.05-0.48-0.31-0.67-0.53c-1.81-1.99-3.62-3.98-5.42-5.98c-0.72-0.8-1.44-1.6-2.16-2.4
		c-0.05-0.05-0.06-0.2-0.02-0.25c0.04-0.06,0.16-0.09,0.25-0.09c0.09,0,0.19,0.04,0.28,0.08c0.09,0.04,0.17,0.1,0.24,0.17
		c2,1.87,3.99,3.76,5.68,5.93c0.63,0.81,1.18,1.68,1.75,2.53C346.16,267.56,346.24,267.74,346.14,267.94"/>
	<path class="st5" d="M403.79,253.56c-0.03-0.03-0.1-0.06-0.1-0.09c-0.03-0.29-0.1-0.58-0.07-0.86c0.09-0.88,0.19-1.75,0.33-2.62
		c0.34-2.03,0.82-4.03,1.46-5.99c0.09-0.28,0.22-0.54,0.35-0.8c0.02-0.05,0.15-0.05,0.23-0.06c0.03,0,0.07,0.07,0.08,0.12
		c0.02,0.14,0.05,0.29,0.04,0.44c-0.33,3.18-0.95,6.3-1.91,9.35c-0.06,0.18-0.17,0.34-0.27,0.5
		C403.91,253.56,403.84,253.55,403.79,253.56"/>
	<path class="st5" d="M339.92,286.75c-0.85,0-1.72,0.34-2.62,0.56c-0.52,0.13-1.04,0.24-1.57,0.32c-0.35,0.06-0.68-0.03-0.97-0.23
		c-0.06-0.04-0.11-0.17-0.1-0.25c0.02-0.25,0.16-0.46,0.34-0.63c0.25-0.24,0.55-0.39,0.89-0.49c1.36-0.4,2.74-0.7,4.13-0.91
		c0.4-0.06,0.77,0.04,1.14,0.15c0.24,0.07,0.3,0.37,0.14,0.59C340.98,286.32,340.57,286.65,339.92,286.75"/>
	<path class="st5" d="M353.96,263.14c-0.12-0.01-0.25,0.01-0.29-0.04c-0.13-0.14-0.26-0.3-0.34-0.47c-0.22-0.49-0.46-0.98-0.62-1.49
		c-0.5-1.59-1.07-3.16-1.32-4.82c-0.12-0.82-0.17-1.66-0.24-2.48c-0.01-0.08,0.08-0.16,0.13-0.24c0.06-0.08,0.3-0.07,0.4,0.02
		c0.1,0.1,0.23,0.2,0.28,0.33c0.1,0.22,0.16,0.46,0.21,0.7c0.58,2.64,1.15,5.27,1.72,7.91
		C353.94,262.74,353.94,262.94,353.96,263.14"/>
	<path class="st5" d="M361.85,275.2c-0.22-0.22-0.21-0.53-0.27-0.8c-0.32-1.43-0.6-2.87-0.95-4.3c-0.23-0.95-0.53-1.88-0.81-2.82
		c-0.23-0.75-0.49-1.49-0.72-2.23c-0.1-0.33-0.18-0.66-0.1-1.01c0.01-0.04,0.04-0.11,0.06-0.11c0.09,0.01,0.21,0.01,0.25,0.07
		c0.14,0.2,0.28,0.41,0.37,0.63c0.24,0.59,0.48,1.18,0.67,1.78c0.79,2.52,1.42,5.09,1.72,7.72c0.03,0.29,0,0.58-0.02,0.87
		C362.04,275.08,361.92,275.14,361.85,275.2"/>
	<path class="st5" d="M410.88,282.1c0.05-0.01,0.12-0.06,0.14-0.04c0.18,0.16,0.37,0.31,0.53,0.49c0.89,1.04,1.63,2.2,2.32,3.37
		c0.82,1.39,1.63,2.78,2.44,4.17c0.07,0.12,0.1,0.27,0.14,0.4c0.01,0.04-0.02,0.1-0.05,0.13c-0.03,0.03-0.08,0.04-0.13,0.04
		c-0.27,0-0.47-0.15-0.62-0.34c-0.27-0.34-0.53-0.7-0.76-1.08c-1.21-1.95-2.41-3.9-3.61-5.86c-0.2-0.33-0.35-0.69-0.5-1.05
		C410.77,282.28,410.85,282.18,410.88,282.1"/>
	<path class="st5" d="M389.66,254.48c0.05,0.03,0.11,0.05,0.12,0.09c0.34,1.07,0.7,2.14,1.01,3.22c0.39,1.36,0.77,2.73,1.12,4.11
		c0.29,1.14,0.52,2.29,0.77,3.44c0.04,0.19,0.05,0.39,0.06,0.58c0.02,0.17-0.12,0.4-0.2,0.35c-0.07-0.05-0.17-0.1-0.19-0.17
		c-0.28-0.78-0.59-1.56-0.8-2.36c-0.59-2.22-1.21-4.44-1.63-6.7c-0.14-0.77-0.23-1.55-0.34-2.32
		C389.59,254.63,389.64,254.56,389.66,254.48"/>
	<path class="st5" d="M362.32,302.32c0.22,1,0.44,2.01,0.64,3.01c0.04,0.18,0.02,0.39-0.01,0.57c-0.01,0.08-0.11,0.18-0.19,0.2
		c-0.08,0.02-0.19-0.04-0.26-0.1c-0.08-0.06-0.15-0.14-0.18-0.22c-0.42-1.09-0.85-2.18-0.98-3.37c-0.16-1.36-0.37-2.71-0.85-4.01
		c-0.02-0.04-0.03-0.1-0.02-0.14c0.03-0.09,0.07-0.19,0.14-0.24c0.07-0.04,0.2-0.07,0.26-0.03c0.44,0.26,0.71,0.65,0.82,1.15
		c0.23,1.05,0.45,2.1,0.68,3.15C362.34,302.31,362.33,302.32,362.32,302.32"/>
	<path class="st5" d="M396.61,294.18c-0.07-0.21-0.14-0.39-0.18-0.58c-0.87-4.03-1.73-8.06-2.59-12.09
		c-0.03-0.14-0.02-0.29-0.03-0.44c0.06,0.03,0.13,0.05,0.14,0.08c0.33,0.97,0.72,1.93,0.96,2.93c0.51,2.15,0.98,4.31,1.39,6.48
		c0.22,1.15,0.28,2.33,0.41,3.5C396.7,294.08,396.66,294.11,396.61,294.18"/>
	<path class="st5" d="M413.34,259.15c0.02-0.1,0.03-0.29,0.08-0.47c0.02-0.09,0.1-0.16,0.17-0.23c1-0.92,2.04-1.8,3.15-2.59
		c0.26-0.18,0.61-0.14,0.79,0.08c0.22,0.28,0.23,0.72-0.01,0.93c-0.75,0.62-1.5,1.24-2.26,1.84c-0.38,0.3-0.78,0.57-1.18,0.85
		C413.85,259.71,413.44,259.51,413.34,259.15"/>
	<path class="st5" d="M395.7,276.94c0.04,0.02,0.11,0.03,0.13,0.07c0.21,0.55,0.46,1.09,0.6,1.65c0.27,1.14,0.55,2.28,0.67,3.46
		c0.07,0.68,0.19,1.36,0.31,2.03c0.16,0.87,0.18,1.75,0.18,2.63c0,0.03-0.07,0.07-0.1,0.1c-0.43-0.91-0.62-1.77-1.39-6.08
		C395.75,278.92,395.63,277.71,395.7,276.94"/>
	<path class="st5" d="M395.41,301.27c-0.05-0.19-0.11-0.37-0.16-0.56c-0.68-2.86-1.35-5.72-2.03-8.58
		c-0.43-1.81-0.62-3.66-1.02-5.74c0.36,0.48,0.39,0.8,0.46,1.1c0.45,1.91,0.88,3.82,1.33,5.73c0.17,0.72,0.36,1.42,0.54,2.14
		c0.25,1,0.49,2,0.6,3.02c0.06,0.49,0.16,0.97,0.24,1.45c0.07,0.48,0.14,0.96,0.2,1.44C395.51,301.27,395.46,301.27,395.41,301.27"
		/>
	<path class="st5" d="M415.67,276.53c0.04-0.02,0.09-0.06,0.13-0.05c0.14,0.03,0.29,0.05,0.41,0.11c2.82,1.38,5.64,2.77,8.45,4.15
		c0.17,0.09,0.36,0.17,0.4,0.39c0.01,0.04,0,0.09-0.02,0.13c-0.02,0.04-0.06,0.09-0.09,0.1c-0.1,0.01-0.2,0.02-0.29-0.02
		c-0.4-0.18-0.8-0.36-1.2-0.56c-2.34-1.14-4.67-2.28-7-3.44c-0.3-0.15-0.66-0.23-0.84-0.55
		C415.59,276.73,415.65,276.62,415.67,276.53"/>
	<path class="st5" d="M335.76,277.37c0.68,0.01,1.55-0.02,2.42,0.05c0.72,0.06,1.45,0.13,2.08,0.56c0.05,0.03,0.06,0.19,0.02,0.25
		c-0.04,0.07-0.14,0.14-0.23,0.16c-1.56,0.32-3.08,0.22-4.57-0.37c-0.09-0.04-0.18-0.08-0.25-0.15c-0.06-0.06-0.13-0.16-0.13-0.24
		c0-0.06,0.1-0.15,0.17-0.18C335.37,277.41,335.47,277.42,335.76,277.37"/>
	<path class="st5" d="M404.89,291.79c0.11,0.78,0.23,1.51,0.31,2.24c0.03,0.34-0.02,0.68-0.04,1.02c-0.01,0.17-0.15,0.28-0.28,0.27
		c-0.16-0.03-0.27-0.12-0.31-0.26c-0.09-0.28-0.18-0.56-0.23-0.85c-0.27-1.84-0.48-3.69-0.89-5.51c-0.01-0.05,0.08-0.13,0.14-0.19
		c0.02-0.02,0.1,0,0.13,0.03c0.06,0.07,0.12,0.15,0.17,0.24c0.13,0.26,0.27,0.53,0.36,0.8
		C404.48,290.34,404.69,291.09,404.89,291.79"/>
	<path class="st5" d="M417.15,264.94c0.95-0.19,1.76-0.37,2.59-0.16c0.08,0.02,0.15,0.1,0.22,0.16c0.09,0.07,0.02,0.26-0.12,0.36
		c-0.04,0.03-0.08,0.06-0.12,0.09c-0.99,0.68-2.87,0.97-4.05,0.62c-0.08-0.02-0.18-0.11-0.21-0.19c-0.06-0.16,0.07-0.26,0.18-0.33
		c0.16-0.1,0.33-0.22,0.51-0.28C416.52,265.1,416.9,265.01,417.15,264.94"/>
	<path class="st5" d="M348.04,301.18c-0.25,0.03-0.48-0.25-0.41-0.47c0.04-0.14,0.08-0.28,0.14-0.41c0.46-0.85,0.92-1.71,1.4-2.55
		c0.09-0.17,0.24-0.3,0.36-0.45c0.14-0.16,0.42-0.2,0.51-0.1c0.14,0.15,0.2,0.33,0.17,0.53c-0.01,0.09-0.03,0.19-0.08,0.28
		c-0.5,0.94-1.01,1.88-1.52,2.82C348.5,301.05,348.29,301.18,348.04,301.18"/>
	<path class="st5" d="M341.19,295.11c-0.07,0-0.22,0.01-0.36-0.01c-0.08-0.02-0.18-0.09-0.22-0.16c-0.04-0.07-0.04-0.19,0-0.26
		c0.07-0.12,0.17-0.24,0.28-0.33c0.73-0.68,1.61-1.07,2.55-1.36c0.22-0.07,0.48-0.03,0.72-0.02c0.07,0,0.15,0.09,0.21,0.16
		c0.02,0.02-0.02,0.09-0.04,0.13c-0.26,0.43-0.67,0.69-1.08,0.96C342.63,294.61,342,294.98,341.19,295.11"/>
	<path class="st5" d="M350.11,264.72c0,0.06,0,0.2-0.01,0.35c0,0.03-0.06,0.06-0.1,0.07c-0.04,0.01-0.11,0.02-0.13,0
		c-1.14-1.05-1.88-2.32-2.19-3.84c-0.01-0.04,0.01-0.12,0.03-0.13c0.09-0.03,0.18-0.07,0.27-0.05c0.09,0.01,0.18,0.07,0.25,0.13
		c0.18,0.16,0.37,0.32,0.51,0.52C349.36,262.63,349.88,263.56,350.11,264.72"/>
	<path class="st5" d="M409.75,250.29c0.02,0.1,0.06,0.19,0.05,0.28c-0.25,1.57-0.95,2.93-1.94,4.16c-0.02,0.03-0.09,0.05-0.13,0.04
		c-0.04-0.01-0.08-0.07-0.09-0.11c-0.03-0.14-0.09-0.29-0.08-0.42c0.2-1.43,0.75-2.7,1.71-3.79c0.14-0.15,0.31-0.23,0.52-0.16
		L409.75,250.29z"/>
	<path class="st5" d="M400.8,253.31c-0.15-0.17-0.32-0.3-0.38-0.46c-0.5-1.36-0.37-2.68,0.27-3.97c0.05-0.11,0.14-0.15,0.24-0.1
		c0.08,0.05,0.19,0.1,0.22,0.17c0.07,0.18,0.12,0.37,0.14,0.57C401.34,250.32,401.1,252.18,400.8,253.31"/>
	<path class="st5" d="M357.18,299.97c0.22,1.03,0.24,1.94-0.07,2.84c-0.05,0.14-0.1,0.27-0.19,0.39c-0.05,0.07-0.16,0.14-0.24,0.14
		c-0.07,0-0.17-0.11-0.18-0.18c-0.04-0.24-0.06-0.48-0.06-0.72c0.02-0.97,0.06-1.94,0.1-2.91c0-0.07,0.1-0.15,0.16-0.21
		c0.1-0.08,0.18-0.04,0.23,0.08C357.04,299.62,357.13,299.84,357.18,299.97"/>
	<path class="st5" d="M417.06,272.52c0.08-0.02,0.18-0.07,0.26-0.05c1.15,0.19,2.31,0.38,3.46,0.57c0.11,0.02,0.23,0.28,0.17,0.35
		c-0.06,0.07-0.14,0.14-0.23,0.15c-0.14,0.02-0.29,0.01-0.43-0.01c-0.39-0.05-0.77-0.12-1.16-0.18c-0.63-0.1-1.25-0.2-1.88-0.3
		c-0.09-0.02-0.19-0.07-0.25-0.14c-0.05-0.07-0.05-0.18-0.05-0.27C416.96,272.61,417.02,272.57,417.06,272.52"/>
	<path class="st5" d="M413.84,279.85c0.21-0.04,0.38,0.06,0.54,0.18c0.87,0.63,1.75,1.26,2.62,1.9c0.08,0.06,0.14,0.14,0.21,0.21
		c0.09,0.09,0.1,0.19,0.01,0.25c-0.07,0.05-0.17,0.08-0.25,0.1c-0.04,0.01-0.1-0.01-0.14-0.04c-0.96-0.67-1.93-1.35-2.88-2.03
		c-0.11-0.08-0.17-0.23-0.25-0.35c-0.01-0.02,0.02-0.09,0.05-0.12C413.76,279.9,413.8,279.88,413.84,279.85"/>
	<path class="st5" d="M340.2,269.56c0.1,0.01,0.2,0,0.29,0.04c0.94,0.41,1.87,0.83,2.8,1.25c0.04,0.02,0.1,0.05,0.11,0.09
		c0.02,0.08,0.05,0.19,0.02,0.26c-0.03,0.08-0.12,0.14-0.19,0.19c-0.03,0.02-0.1,0.02-0.13,0c-0.97-0.46-1.94-0.91-2.9-1.38
		c-0.07-0.03-0.12-0.15-0.12-0.24C340.08,269.7,340.16,269.63,340.2,269.56"/>
	<path class="st5" d="M409.34,287.78c0.02,0.21-0.04,0.37-0.16,0.33c-0.09-0.03-0.2-0.04-0.26-0.1c-0.59-0.6-0.95-1.32-1.11-2.14
		c-0.03-0.15,0.07-0.36,0.18-0.34c0.08,0.01,0.18,0.03,0.24,0.08c0.25,0.24,0.42,0.52,0.55,0.84
		C408.96,286.89,409.15,287.33,409.34,287.78"/>
	<path class="st5" d="M376.21,294.69c0.04,0.44,0.09,0.92,0.13,1.41c0,0.02-0.06,0.06-0.09,0.06c-0.04,0-0.11-0.01-0.13-0.04
		c-0.08-0.12-0.17-0.25-0.21-0.38c-0.19-0.66-0.37-1.32-0.54-1.98c-0.02-0.09,0-0.19,0.01-0.29c0.01-0.12,0.08-0.16,0.19-0.19
		c0.11-0.02,0.2-0.01,0.23,0.1C375.94,293.81,376.06,294.23,376.21,294.69"/>
	<path class="st5" d="M385.34,264.56c0.09,0.01,0.21-0.02,0.28,0.02c0.71,0.51,1.42,1.02,2.13,1.54c0.07,0.05,0.11,0.16,0.16,0.24
		c-0.03,0.04-0.06,0.09-0.1,0.13c-0.91-0.39-1.62-1.08-2.37-1.69c-0.06-0.05-0.05-0.18-0.08-0.27L385.34,264.56z"/>
	<path class="st5" d="M382.83,262.69c0.09,0.01,0.2-0.01,0.27,0.03c0.61,0.44,1.22,0.9,1.82,1.36c0.06,0.04,0.06,0.17,0.08,0.26
		l0.01-0.02c-0.09,0-0.21,0.03-0.27-0.02c-0.61-0.45-1.22-0.91-1.82-1.37c-0.06-0.05-0.05-0.17-0.08-0.26L382.83,262.69z"/>
	<path class="st5" d="M367.46,258.68c0.05,0.24,0.11,0.48,0.15,0.72c0.01,0.06-0.06,0.14-0.09,0.21c-0.04-0.03-0.11-0.04-0.12-0.08
		c-0.15-0.51-0.31-1.03-0.44-1.55c-0.01-0.05,0.09-0.15,0.15-0.18c0.11-0.04,0.18,0.04,0.2,0.16
		C367.35,258.2,367.41,258.44,367.46,258.68C367.46,258.68,367.46,258.68,367.46,258.68z"/>
	<path class="st5" d="M384.99,264.34c0.22-0.08,0.32,0.02,0.35,0.23l0.01-0.02c-0.22,0.09-0.32-0.01-0.35-0.22L384.99,264.34z"/>
	<polyline class="st5" points="341.93,274.04 341.91,274.13 341.91,274.02 341.93,274.04 	"/>
	<polyline class="st5" points="409.8,250.29 409.69,250.26 409.75,250.29 409.8,250.29 	"/>
</g>
</svg>
